<svg t="1602911923868" class="icon" viewBox="0 0 1025 1024" version="1.1" xmlns="http://www.w3.org/2000/svg" p-id="2903" width="200" height="200"><path d="M516.654545 46.545455c111.709091 0 202.472727 90.763636 202.472728 204.8s-90.763636 204.8-202.472728 204.8-202.472727-90.763636-202.472727-204.8S404.945455 46.545455 516.654545 46.545455m0-46.545455c-137.309091 0-249.018182 111.709091-249.018181 251.345455 0 139.636364 111.709091 251.345455 249.018181 251.345454s249.018182-111.709091 249.018182-251.345454c0-139.636364-111.709091-251.345455-249.018182-251.345455z" fill="#ffffff" p-id="2904"></path><path d="M563.2 546.909091c167.563636 0 302.545455 137.309091 302.545455 304.872727v86.109091c0 20.945455-16.290909 39.563636-39.563637 39.563636H204.8c-20.945455 0-39.563636-16.290909-39.563636-39.563636v-86.109091c0-167.563636 134.981818-304.872727 302.545454-304.872727h95.418182m0-48.872727h-95.418182C274.618182 498.036364 116.363636 656.290909 116.363636 851.781818v86.109091C116.363636 986.763636 155.927273 1024 202.472727 1024h623.709091c46.545455 0 86.109091-39.563636 86.109091-86.109091v-86.109091c2.327273-195.490909-155.927273-353.745455-349.090909-353.745454z" fill="#ffffff" p-id="2905"></path><path d="M25.6 786.618182c-11.636364 0-20.945455-9.309091-23.272727-20.945455-16.290909-167.563636 86.109091-235.054545 153.6-258.327272 6.981818-4.654545 6.981818-13.963636 2.327272-20.945455-39.563636-51.2-58.181818-102.4-53.527272-151.272727 9.309091-86.109091 79.127273-134.981818 81.454545-137.309091 11.636364-6.981818 25.6-4.654545 32.581818 6.981818 6.981818 11.636364 4.654545 25.6-6.981818 32.581818-2.327273 0-55.854545 39.563636-60.509091 102.4-4.654545 48.872727 23.272727 102.4 79.127273 158.254546 6.981818 6.981818 9.309091 16.290909 4.654545 23.272727-2.327273 9.309091-9.309091 13.963636-18.618181 16.290909-6.981818 0-188.509091 20.945455-167.563637 223.418182 0 11.636364-9.309091 23.272727-23.272727 25.6zM998.4 786.618182c-13.963636-2.327273-23.272727-11.636364-23.272727-25.6 18.618182-202.472727-160.581818-223.418182-167.563637-223.418182-9.309091 0-16.290909-6.981818-18.618181-16.290909-2.327273-9.309091 0-18.618182 4.654545-23.272727 55.854545-55.854545 83.781818-107.054545 79.127273-158.254546-4.654545-62.836364-60.509091-102.4-60.509091-102.4-11.636364-6.981818-13.963636-20.945455-6.981818-32.581818 6.981818-11.636364 20.945455-13.963636 32.581818-6.981818 2.327273 2.327273 74.472727 51.2 81.454545 137.309091 4.654545 51.2-13.963636 102.4-53.527272 151.272727-4.654545 6.981818-2.327273 16.290909 4.654545 18.618182 67.490909 25.6 167.563636 90.763636 153.6 258.327273-2.327273 13.963636-11.636364 23.272727-25.6 23.272727z" fill="currentColor" p-id="2906"></path></svg>