<svg t="1603181755796" class="icon" viewBox="0 0 1038 1024" version="1.1" xmlns="http://www.w3.org/2000/svg" p-id="4975" width="200" height="200"><path d="M970.89612 63.665319H615.643638a26.102781 26.102781 0 0 0-26.102781-25.466127h-5.729878V27.376087A27.376087 27.376087 0 0 0 556.434891 0H487.676346a28.012741 28.012741 0 0 0-28.01274 27.376087V38.199192h-5.093226a27.376087 27.376087 0 0 0-26.739434 25.466127H63.665319a63.665319 63.665319 0 0 0-63.665319 63.66532v523.965578a63.665319 63.665319 0 0 0 63.665319 63.66532h373.078772L190.995958 958.163057a27.376087 27.376087 0 1 0 38.835845 38.835844l242.564867-245.748132v222.191964a45.202377 45.202377 0 1 0 89.7681 0v-222.828618l250.204705 250.204706a27.376087 27.376087 0 0 0 38.835845-38.835845l-254.661277-254.661278h372.442118a63.665319 63.665319 0 0 0 63.665319-63.665319V122.874066a63.665319 63.665319 0 0 0-61.75536-59.208747zM63.665319 646.839645V127.330639h905.957495v520.782312z" p-id="4976"></path><path d="M254.661277 178.262894a28.012741 28.012741 0 0 0-28.01274 28.012741V572.987874a28.012741 28.012741 0 0 0 55.388828 0V206.275635A28.012741 28.012741 0 0 0 254.661277 178.262894zM445.657236 318.326597a27.376087 27.376087 0 0 0-28.012741 27.376087V572.987874a28.012741 28.012741 0 0 0 55.388828 0V345.702684A27.376087 27.376087 0 0 0 445.657236 318.326597zM636.653194 254.661277a27.376087 27.376087 0 0 0-27.376088 27.376088V572.987874a28.012741 28.012741 0 0 0 55.388828 0V283.947324A27.376087 27.376087 0 0 0 636.653194 254.661277zM823.829233 389.631755a28.012741 28.012741 0 0 0-27.376088 28.01274V572.987874a28.012741 28.012741 0 0 0 55.388828 0V417.644495a28.012741 28.012741 0 0 0-28.01274-28.01274z" p-id="4977"></path></svg>